<svg xmlns="http://www.w3.org/2000/svg"  viewBox="0 0 40 40" width="40px" height="40px"><path fill="#839cb2" d="M19.363,38.5c-0.092-1.984-0.193-3.73-0.28-5.239c-0.17-2.961-0.293-5.102-0.176-6.005l0.183-1.416 l-1.027,0.993c-0.079,0.076-0.189,0.115-0.363,0.173c-0.152,0.051-0.325,0.108-0.493,0.216l-0.531,0.341l0.593,0.573 c0.004,0.058,0.009,0.125,0.015,0.202c0.048,0.662,0.161,2.213,0.161,4.713c0,2.399,0,4.49-0.106,5.01 c-0.049-0.015-0.133-0.048-0.263-0.124l-0.414-0.24l-0.098-0.095c-0.313-4.552-0.453-7.211-0.453-8.608v-0.137l-0.07-0.118 c-0.222-0.376-0.333-0.718-0.44-1.049c-0.059-0.181-0.115-0.351-0.181-0.51c-0.018-0.082-0.031-0.153-0.042-0.215l0.342,0.132 l0.018-0.717c0-0.236-0.021-0.456-0.25-0.716l-0.151-0.438c-0.081-0.196-0.058-0.231,0.078-0.319l0.229-0.147v-0.272 c0-0.631-0.517-0.831-0.973-1.007l-0.087-0.034h-0.093c-0.826,0-1.611,0.278-2.337,0.579l-0.062,0.025L9.98,25.683v0.104 c-0.14-0.036-0.268-0.052-0.396-0.052c-0.324,0-0.619,0.103-0.858,0.298c-0.097,0.039-0.24,0.106-0.382,0.207H7.871 c0.06-0.002-0.076-0.126-0.194-0.413l-0.04-0.096L7.562,25.66c-0.337-0.326-0.417-0.639-0.578-1.263L6.982,24.39l0.388-0.25 l-0.347-0.836l-0.146-0.427c0.011-0.163,0.068-0.256,0.332-0.358l0.394-0.152c0.221-0.022,0.363-0.111,0.448-0.175h1.149 l-0.891-0.86c-0.119-0.114-0.236-0.267-0.389-0.461c-0.197-0.25-0.445-0.564-0.8-0.957c-0.343-0.469-0.629-0.964-0.842-1.479 c-0.903-3.598-1.061-6.575-0.447-8.779c0.35-1.349,1.123-2.395,2.365-3.206c0.452-0.196,0.933-0.672,1.535-1.27l0.445-0.437 c0.745-0.809,1.275-1.232,1.896-1.661c1.05-0.59,2.065-0.847,3.184-1.096l0.32-0.051C16.832,1.731,18.257,1.5,19.898,1.5 c0.41,0,0.835,0.014,1.275,0.047c3.229,0.184,5.975,1.21,8.404,3.139c1.007,0.708,1.903,1.575,2.617,2.523 c0.125,0.206,0.283,0.449,0.438,0.688c0.412,0.635,0.801,1.235,0.988,1.716l0.024,0.063l0.04,0.054 c0.842,1.14,1.006,3.058,0.473,5.547c-0.08,0.747-0.227,1.729-0.73,3.187l-0.695,2.963l0.031,0.119 c0.046,0.178,0.017,0.302-0.114,0.492l-0.088,0.128v0.426c0,0.485,0.533,0.597,0.975,0.661c0.067,0.043,0.116,0.078,0.127,0.093 c0,0,0.017,0.034,0.017,0.148l-0.157,0.793c-0.201,0.293-0.416,0.584-0.713,0.757l-0.261,0.166 c-0.461,0.293-0.833,0.53-1.058,0.811c-0.187,0.136-0.28,0.156-0.346,0.156c-0.077,0-0.178-0.026-0.33-0.084l-0.054-0.021 c0.04-0.067,0.067-0.147,0.082-0.241l0.168-0.243l0.021-0.1c0.111-0.535,0.031-0.947-0.265-1.376l-0.044-0.064l-0.062-0.048 c-0.603-0.467-1.183-0.693-1.771-0.693c-0.174,0-0.348,0.021-0.518,0.062l-2.06,0.596l-0.528,0.766l0.524,0.507 c0.001,0.049,0.001,0.105,0.001,0.149l-0.181,1.093c-0.267,1.11-0.524,1.719-0.88,2.063l-0.153,0.147v0.212 c0,1.638,0,3.494-0.185,5.636c-0.119,1.665-0.223,3.127-0.329,3.651l-1,0.161c-0.077-0.629-0.137-2.143-0.006-4.735l0.187-3.968 c0.131-0.809,0.17-1.332,0.182-1.638l0.938-0.259v-0.773l-0.152-0.147c-0.036-0.035-0.369-0.345-1.089-0.644l-0.15-0.063 l-1.399,0.338l0.128,0.492c0.171,0.66,0.171,1.616,0.171,2.939c0,1.433,0,2.67-0.182,3.988c-0.085,3.042-0.24,4.158-0.371,4.526 h-0.306c-0.076-0.542-0.142-1.876-0.008-4.067c0.001-2.774,0.001-5.144,0.185-7.013l0.054-0.549h-1.953l0.286,0.691 c0.148,0.359,0.148,1.273,0.148,2.333v3.966c-0.08,2.529-0.225,4.035-0.356,4.729C19.887,38.5,19.417,38.5,19.363,38.5z M20.85,26.071l1.233-1.191l0.567-1.094c0.253-0.297,0.31-0.719,0.153-1.174l-0.022-0.064l-0.225-0.327l-0.344-0.346l-0.203-0.196 l-0.391-0.982v-0.296l-0.167-0.161c0.234,0.078,0.52,0.153,0.864,0.23l1.189,0.178l0.193,0.079c0.244,0.102,0.455,0.19,0.682,0.19 c0.055,0,0.109-0.005,0.161-0.016c0.135,0.051,0.289,0.077,0.461,0.077c0.245,0,0.536-0.049,0.914-0.153l2.076-0.256 c2.603-0.251,3.172-0.627,3.363-0.848c0.273-0.189,0.54-0.445,0.74-0.709c0.415-0.263,0.565-0.721,0.71-1.166l0.056-0.167 c0.306-0.477,0.435-1.066,0.561-1.636c0.04-0.18,0.079-0.359,0.124-0.533l0.162-0.625h-0.239V14.48 c0-0.325-0.116-0.513-0.253-0.622c-0.102-0.246-0.313-0.404-0.574-0.404c-0.083,0-0.193,0.017-0.313,0.084 c-0.413,0.045-0.736,0.25-0.887,0.547c-0.983,0.316-1.772,0.575-2.397,0.833c-0.298,0.065-0.721,0.314-1.422,0.726l-0.504,0.295 l-1.965,1.175c-0.104,0.061-0.219,0.133-0.342,0.212c-0.396,0.252-0.844,0.539-1.5,0.728l-2.253,0.726 c-0.367,0.142-0.482,0.36-0.514,0.522l-0.326-0.473v-0.033l-0.013,0.013l-0.037-0.054l-0.062,0.149l-0.611,0.591 c-0.034-0.192-0.175-0.329-0.27-0.419l-0.067-0.065l-2.233-0.938c-0.301-0.146-0.626-0.287-0.93-0.417 c-0.375-0.162-0.73-0.315-0.972-0.456c-1.835-1.182-3.31-1.97-3.896-2.197c-0.684-0.421-1.472-0.897-2.468-1.186 c-0.626-0.31-0.877-0.357-1.043-0.357H7.314l-0.212,0.295c-0.032,0.061-0.066,0.155-0.062,0.275l-0.111,0.161L6.723,15.29 c-0.008,1.059,0.169,1.762,0.579,2.343c-0.063,0.391,0.169,0.764,0.38,1.102c0.352,0.567,0.681,0.883,1.134,1.095 c0.274,0.267,1.073,0.509,3.369,0.826l1.959,0.27c0.384,0.096,0.663,0.141,0.885,0.141c0.217,0,0.401-0.045,0.559-0.136h0.822 l1.417-0.293l0.056-0.027c0.131-0.063,0.275-0.113,0.412-0.162c0.129-0.045,0.256-0.09,0.373-0.143l-0.477,0.453v0.281 l-0.419,0.891l-0.156,0.376l-0.206,0.199l-0.339,0.474v0.728l0.683,1.32l0.919,0.532l0.57-0.549l0.193-0.934l0.68-0.836 l0.429,0.622L20.85,26.071z"/><path fill="#66798f" d="M19.897,2c0.414,0,0.831,0.015,1.257,0.047c3.113,0.177,5.766,1.168,8.113,3.03l0.023,0.018 l0.024,0.017c0.928,0.652,1.777,1.469,2.456,2.363c0.145,0.233,0.296,0.466,0.445,0.696c0.38,0.585,0.772,1.191,0.94,1.623 l0.048,0.125l0.08,0.108c0.609,0.823,0.811,2.196,0.594,3.933c-0.059-0.154-0.144-0.286-0.247-0.393 c-0.193-0.372-0.556-0.612-0.989-0.612c-0.126,0-0.289,0.022-0.464,0.1c-0.45,0.072-0.825,0.294-1.061,0.61 c-0.913,0.295-1.612,0.526-2.202,0.767c-0.417,0.119-0.853,0.375-1.546,0.783l-0.513,0.3l-1.948,1.165 c-0.116,0.067-0.237,0.144-0.367,0.227c-0.385,0.246-0.783,0.5-1.398,0.678l-2.239,0.721l-0.027,0.009l-0.027,0.01 c-0.046,0.018-0.091,0.037-0.132,0.058v-0.76l-0.436,0.421l-0.225-0.326l-0.375,0.905l-0.104,0.101 c-0.002-0.002-0.003-0.003-0.005-0.005l-0.135-0.13l-0.173-0.073l-2.122-0.892c-0.324-0.156-0.648-0.296-0.95-0.426 c-0.361-0.156-0.703-0.303-0.879-0.404c-1.801-1.16-3.262-1.947-3.919-2.22c-0.748-0.451-1.525-0.911-2.514-1.211 c-0.698-0.332-1.013-0.401-1.264-0.401c0,0,0,0,0,0c-0.414,0-0.772,0.21-0.957,0.563c-0.037,0.07-0.086,0.186-0.108,0.336 l-0.094,0.136l-0.039,0.208l-0.187,0.992l-0.017,0.092v0.093c0,0.095,0.002,0.187,0.005,0.277c-0.37-2.35-0.339-4.32,0.097-5.886 c0.311-1.202,1.004-2.145,2.119-2.882c0.523-0.241,1.024-0.738,1.646-1.355c0.142-0.141,0.289-0.287,0.44-0.433l0.021-0.02 l0.02-0.022c0.679-0.738,1.178-1.141,1.754-1.541c1.006-0.559,1.964-0.803,3.018-1.039l0.315-0.051 C16.889,2.229,18.294,2,19.897,2 M6.513,17.225c0.077,0.193,0.17,0.374,0.279,0.547c0.006,0.491,0.278,0.928,0.467,1.23 l0.039,0.063c0.348,0.56,0.724,0.925,1.221,1.176c0.49,0.413,1.564,0.629,3.597,0.909l1.911,0.264 c0.452,0.107,0.744,0.151,1.002,0.151c0.249,0,0.476-0.045,0.677-0.135h0.652h0.102l0.1-0.021l1.002-0.207l-0.262,0.558 l-0.107,0.259l-0.13,0.126l-0.072,0.069l-0.057,0.082l-0.187,0.27l-0.177,0.256v0.312v0.451v0.243l0.112,0.216l0.28,0.541 l0.28,0.541l0.134,0.259l0.252,0.146l0.467,0.27l0.197,0.114l-0.562,0.543c-0.027,0.017-0.12,0.048-0.188,0.071 c-0.171,0.057-0.385,0.128-0.606,0.271l-0.698,0.449V26.38c0-0.283-0.027-0.608-0.306-0.965l-0.069-0.201l0.282-0.182v-0.545 c0-0.974-0.809-1.287-1.293-1.474l-0.174-0.067h-0.186c-0.915,0-1.792,0.312-2.529,0.617l-0.123,0.051l-0.106,0.082l-0.933,0.721 l-0.933,0.721l-0.134,0.103c-0.05-0.004-0.1-0.006-0.15-0.006c-0.408,0-0.795,0.127-1.112,0.362 c-0.081,0.036-0.176,0.082-0.276,0.142H8.187c-0.016-0.029-0.032-0.064-0.049-0.104l-0.08-0.192L7.909,25.3 c-0.178-0.172-0.25-0.325-0.351-0.687l0.433-0.279l-0.319-0.771L7.497,23.14l-0.06-0.174l0.289-0.112 c0.199-0.03,0.355-0.097,0.472-0.163h2.238l-1.78-1.719c-0.083-0.08-0.198-0.226-0.343-0.41c-0.186-0.236-0.438-0.556-0.789-0.946 c-0.321-0.439-0.569-0.868-0.758-1.308C6.674,17.94,6.589,17.579,6.513,17.225 M32.77,19.068l-0.497,2.126l-0.048,0.238 l0.062,0.238c0,0.001-0.009,0.026-0.05,0.085l-0.177,0.256v0.312v0.27c0,0.711,0.58,0.976,1.066,1.092l-0.077,0.41 c-0.135,0.194-0.301,0.408-0.531,0.542l-0.236,0.151c-0.267,0.17-0.507,0.322-0.714,0.48c0.046-0.527-0.081-0.991-0.391-1.44 L31.089,23.7l-0.123-0.095c-0.685-0.529-1.383-0.798-2.077-0.798c-0.213,0-0.427,0.026-0.679,0.087l-0.933,0.27l-0.933,0.27 l-0.342,0.099l-0.202,0.293l-0.187,0.27l-0.482,0.698l0.61,0.589l0.048,0.047l-0.148,0.932c-0.088,0.364-0.172,0.667-0.258,0.919 v-0.092v-0.424l-0.305-0.295c-0.07-0.067-0.457-0.419-1.245-0.746l-0.301-0.125l-0.317,0.076l-0.746,0.18l-0.905,0.219l0.342-0.33 l0.187-0.18l0.28-0.27l0.118-0.114l0.075-0.146l0.28-0.541l0.224-0.432c0.34-0.429,0.417-1.007,0.207-1.615l-0.045-0.129 l-0.078-0.113l-0.187-0.27l-0.057-0.082l-0.072-0.069l-0.28-0.27l-0.125-0.121l-0.17-0.426l0.013,0.002l1.098,0.163 c0.045,0.018,0.088,0.036,0.128,0.053c0.269,0.113,0.548,0.23,0.876,0.23c0.038,0,0.076-0.002,0.114-0.005 c0.156,0.044,0.326,0.065,0.508,0.065c0.275,0,0.586-0.048,0.976-0.152l2.048-0.258c2.537-0.245,3.311-0.612,3.657-0.966 c0.279-0.2,0.544-0.451,0.759-0.72C32.57,19.287,32.678,19.181,32.77,19.068 M20.071,24.088l0.149,1.077l0.154,1.117h-0.832 l0.133-0.994l0.026-0.025l0.063-0.302l0.137-0.663L20.071,24.088 M19.424,27.159l0.209,0.505c0.111,0.267,0.111,1.306,0.111,2.142 l0,3.935c-0.016,0.504-0.034,0.964-0.054,1.381c-0.037-0.668-0.073-1.3-0.108-1.895c-0.169-2.932-0.29-5.05-0.18-5.907 L19.424,27.159 M16.168,27.811l0.07,0.027v-0.003l0.545,0.526l0,0c0,0.004,0.001,0.008,0.001,0.012 c0.048,0.657,0.16,2.195,0.16,4.677c0,0.943,0,1.865-0.007,2.655c-0.224-3.417-0.326-5.524-0.326-6.712V28.72l-0.139-0.235 C16.335,28.252,16.246,28.032,16.168,27.811 M24.784,28.298l-0.188,0.181v0.424c0,1.628,0,3.473-0.184,5.608 c-0.094,1.318-0.184,2.58-0.268,3.244l-0.109,0.018c-0.045-0.738-0.064-2.053,0.041-4.134l0.184-3.912 c0.09-0.576,0.138-1.01,0.163-1.329l0.227-0.063L24.784,28.298 M19.897,1c-1.836,0-3.386,0.279-4.751,0.499 c-1.213,0.27-2.239,0.541-3.359,1.172c-0.653,0.451-1.213,0.901-1.959,1.713c-0.746,0.721-1.4,1.442-1.866,1.623 c-1.4,0.901-2.239,2.073-2.613,3.516c-0.653,2.344-0.467,5.409,0.467,9.105c0.187,0.451,0.467,0.992,0.933,1.623 c0.653,0.721,0.933,1.172,1.213,1.442c-0.187,0-0.187,0.18-0.467,0.18l-0.467,0.18c-0.467,0.18-0.653,0.451-0.653,0.901 l0.187,0.541l0.187,0.451l-0.28,0.18v0.27c0.187,0.721,0.28,1.172,0.746,1.623c0.187,0.451,0.467,0.721,0.653,0.721h0.653 c0.187-0.18,0.467-0.27,0.467-0.27c0.177-0.171,0.392-0.234,0.597-0.234c0.118,0,0.233,0.021,0.336,0.054l0.467,0.18l0.653,0.451 c0.28,0,0.467-0.18,0.746-0.27c0.187-0.18,0.28-0.27,0.28-0.27l-0.467-0.18h-0.467c-0.467,0-0.653-0.18-0.653-0.27l0.933-0.721 l0.933-0.721c0.653-0.27,1.4-0.541,2.146-0.541c0.467,0.18,0.653,0.27,0.653,0.541c-0.28,0.18-0.467,0.451-0.28,0.901l0.187,0.541 c0.187,0.18,0.187,0.27,0.187,0.451c-0.079-0.03-0.144-0.045-0.198-0.045c-0.263,0-0.237,0.363-0.082,1.037 c0.187,0.451,0.28,0.992,0.653,1.623c0,1.623,0.187,4.778,0.467,8.834l0.28,0.27l0.467,0.27c0.233,0.135,0.42,0.203,0.572,0.203 c0.152,0,0.268-0.068,0.362-0.203c0.187-0.27,0.187-2.164,0.187-5.319c0-3.245-0.187-4.868-0.187-5.138l-0.28-0.27 c0.28-0.18,0.653-0.18,0.933-0.451c-0.187,1.442,0.187,5.499,0.467,11.629c0,0.18,0.187,0.18,0.653,0.18h0.746 c0.187-0.541,0.373-2.254,0.467-5.228v-3.966c0-1.172,0-2.073-0.187-2.524h0.653c-0.187,1.893-0.187,4.237-0.187,7.031 c-0.178,2.918-0.017,4.61,0.16,4.61c0.009,0,0.018-0.004,0.027-0.013h0.746c0.022,0.009,0.044,0.013,0.065,0.013 c0.419,0,0.593-1.709,0.682-4.971c0.187-1.352,0.187-2.614,0.187-4.057c0-1.352,0-2.344-0.187-3.065l0.746-0.18 c0.653,0.27,0.933,0.541,0.933,0.541v0.18l-0.653,0.18l-0.28,0.18c0,0.18,0,0.721-0.187,1.893l-0.187,3.966 c-0.178,3.528-0.016,5.331,0.161,5.331c0.008,0,0.017-0.004,0.025-0.012l1.68-0.27c0.187-0.18,0.28-1.442,0.467-4.057 c0.187-2.164,0.187-4.057,0.187-5.679c0.467-0.451,0.746-1.172,1.026-2.344l0.187-1.172c0-0.27,0-0.541-0.187-0.541l-0.187-0.18 l0.187-0.27l0.933-0.27l0.933-0.27c0.137-0.033,0.271-0.048,0.401-0.048c0.579,0,1.084,0.294,1.465,0.589 c0.187,0.27,0.28,0.541,0.187,0.992l-0.187,0.27c0,0.18,0,0.18-0.187,0.18c-0.187,0.451,0,0.721,0.467,0.721 c0.193,0.075,0.354,0.118,0.51,0.118c0.22,0,0.429-0.087,0.703-0.299c0.187-0.27,0.653-0.541,1.213-0.901 c0.467-0.27,0.746-0.721,0.933-0.992l0.187-0.992c0-0.451-0.187-0.541-0.467-0.721c-0.653-0.09-0.653-0.18-0.653-0.18v-0.27 c0.187-0.27,0.28-0.541,0.187-0.901l0.653-2.795c0.467-1.352,0.653-2.344,0.746-3.245c0.56-2.614,0.373-4.688-0.56-5.95 c-0.28-0.721-0.933-1.623-1.493-2.524c-0.746-0.992-1.68-1.893-2.706-2.614c-2.613-2.073-5.505-3.065-8.678-3.245 C20.757,1.015,20.319,1,19.897,1L19.897,1z M24.379,20.414c-0.176,0-0.413-0.127-0.743-0.255l-1.213-0.18 c-1.213-0.27-1.68-0.541-1.213-0.721l2.239-0.721c0.933-0.27,1.493-0.721,1.959-0.992l1.959-1.172 c0.933-0.541,1.493-0.901,1.866-0.992c0.653-0.27,1.493-0.541,2.613-0.901c0-0.27,0.28-0.451,0.653-0.451 c0.055-0.053,0.101-0.075,0.14-0.075c0.093,0,0.14,0.127,0.14,0.255c0.187,0,0.187,0.18,0.187,0.27v0.901h0.093 c-0.187,0.721-0.28,1.532-0.653,2.073c-0.187,0.541-0.28,0.992-0.653,1.172c-0.187,0.27-0.467,0.541-0.746,0.721 c-0.187,0.27-1.213,0.541-3.079,0.721l-2.146,0.27c-0.327,0.09-0.583,0.135-0.781,0.135c-0.198,0-0.338-0.045-0.432-0.135 C24.515,20.393,24.452,20.414,24.379,20.414L24.379,20.414z M15.029,20.565c-0.187,0-0.443-0.045-0.816-0.135l-1.959-0.27 c-1.959-0.27-3.079-0.541-3.079-0.721c-0.467-0.18-0.746-0.451-1.026-0.901c-0.28-0.451-0.467-0.721-0.28-0.992 c-0.467-0.541-0.653-1.172-0.653-2.164l0.187-0.992c0.187-0.27,0.187-0.27,0.187-0.27c-0.074-0.107-0.06-0.157,0.029-0.157 c0.137,0,0.452,0.119,0.904,0.338c0.933,0.27,1.68,0.721,2.426,1.172c0.467,0.18,1.866,0.901,3.826,2.164 c0.467,0.27,1.213,0.541,1.959,0.901l2.146,0.901c0.187,0.18,0.187,0.18-0.187,0.27c-0.187,0.18-0.653,0.27-1.026,0.451 l-1.306,0.27h-0.933C15.332,20.52,15.215,20.565,15.029,20.565L15.029,20.565z M21.21,25.027l-0.187-1.352l-0.933-1.352V20.25 l0.187-0.451l0.187,0.27l0.28,0.18l0.187,0.18l0.187,0.18v0.18l0.467,1.172l0.28,0.27l0.28,0.27l0.187,0.27 c0.093,0.27,0.093,0.541-0.093,0.721l-0.28,0.541l-0.28,0.541l-0.28,0.27L21.21,25.027L21.21,25.027z M18.598,24.937l-0.467-0.27 l-0.28-0.541l-0.28-0.541v-0.451l0.187-0.27l0.28-0.27l0.187-0.451l0.467-0.992v-0.18l0.187-0.18l0.187-0.18l0.28-0.18l0.187-0.27 l0.187-0.18v2.614h0.28l-1.026,1.262l-0.187,0.901L18.598,24.937L18.598,24.937z"/></svg>