<svg xmlns="http://www.w3.org/2000/svg"  viewBox="0 0 40 40" width="40px" height="40px"><path fill="#ba9b48" d="M10.929,38l-5.685-5.686C5.087,32.157,5,31.947,5,31.725s0.087-0.432,0.244-0.589l7.148-7.148	l-2.121-2.121l-7.148,7.148c-1.495,1.494-1.495,3.927,0,5.421L6.687,38H10.929z"/><path fill="#ffeea3" d="M9.515,38l-4.978-4.979C4.191,32.675,4,32.215,4,31.725c0-0.489,0.191-0.949,0.537-1.296l7.148-7.148	l-0.707-0.707L3.83,29.722C3.295,30.257,3,30.968,3,31.725c0,0.758,0.295,1.469,0.83,2.004L8.101,38H9.515z"/><path fill="#ba9b48" d="M36.877,29.015l-7.148-7.148l-2.121,2.121l7.148,7.148C34.913,31.293,35,31.503,35,31.725	c0,0.223-0.087,0.433-0.244,0.59L29.071,38h4.242l3.564-3.564C38.372,32.941,38.372,30.509,36.877,29.015z"/><path fill="#ffeea3" d="M36.17,29.722l-7.148-7.148l-0.707,0.707l7.148,7.148C35.809,30.775,36,31.235,36,31.725	s-0.191,0.95-0.537,1.297L30.485,38h1.414l4.271-4.271c0.535-0.535,0.83-1.246,0.83-2.004C37,30.968,36.705,30.257,36.17,29.722z"/><rect width="25" height="24.702" x="7.5" y="13.298" fill="#ffeea3"/><polygon fill="#ba9b48" points="8,38 8,13.798 32,13.798 32,38 33,38 33,12.798 7,12.798 7,38"/><path fill="#ffeea3" d="M35.493,17C35.415,10.516,30.002,2.5,20,2.5S4.585,10.516,4.507,17H4.5v2c0,1.381,1.119,2.5,2.5,2.5	s2.5-1.119,2.5-2.5v-1.857h21V19c0,1.381,1.119,2.5,2.5,2.5s2.5-1.119,2.5-2.5v-2H35.493z"/><path fill="#ba9b48" d="M36,17.143h-1C35,11.439,30.232,3,20,3S5,11.439,5,17.143H4C4,9.86,10.117,2,20,2S36,9.86,36,17.143z"/><path fill="#ba9b48" d="M20.06,22c-2.951,0-5.31-1.729-5.408-1.802l0.596-0.803C15.269,19.411,17.447,21,20.06,21 c2.611,0,4.79-1.589,4.812-1.604l0.596,0.803C25.368,20.271,23.01,22,20.06,22z"/><circle cx="13.5" cy="12.503" r="4" fill="#b0c1d4"/><path fill="#66798f" d="M13.5,17.003c-2.481,0-4.5-2.019-4.5-4.5s2.019-4.5,4.5-4.5s4.5,2.019,4.5,4.5 S15.981,17.003,13.5,17.003z M13.5,9.003c-1.93,0-3.5,1.57-3.5,3.5s1.57,3.5,3.5,3.5s3.5-1.57,3.5-3.5S15.43,9.003,13.5,9.003z"/><circle cx="13.5" cy="11.786" r="2.786" fill="#fff"/><circle cx="26.5" cy="12.503" r="4" fill="#b0c1d4"/><path fill="#66798f" d="M26.5,17.003c-2.481,0-4.5-2.019-4.5-4.5s2.019-4.5,4.5-4.5s4.5,2.019,4.5,4.5 S28.981,17.003,26.5,17.003z M26.5,9.003c-1.93,0-3.5,1.57-3.5,3.5s1.57,3.5,3.5,3.5s3.5-1.57,3.5-3.5S28.43,9.003,26.5,9.003z"/><circle cx="26.5" cy="11.786" r="2.786" fill="#fff"/><path fill="#f5ce85" d="M20,13.5c-8.595,0.192-7.835,6.927-7.052,8.936c0.478,1.218,1.473,2.064,2.351,2.064 c2.351,0,2.758-3.495,3.134-5.503c0.149-0.846,0.87-1.183,1.567-1.266c0.698,0.082,1.418,0.419,1.567,1.266 c0.376,2.009,0.784,5.503,3.134,5.503c0.877,0,1.873-0.846,2.351-2.064C27.835,20.427,28.595,13.692,20,13.5z"/><path fill="#967a44" d="M24.701,25c-2.575,0-3.15-3.243-3.532-5.389l-0.094-0.523c-0.084-0.479-0.445-0.765-1.075-0.854 c-0.63,0.09-0.991,0.374-1.074,0.849l-0.097,0.533C18.448,21.76,17.872,25,15.299,25c-1.107,0-2.266-0.979-2.816-2.381 c-0.488-1.252-0.995-4.241,0.577-6.598c1.288-1.931,3.62-2.947,6.93-3.021c3.331,0.074,5.663,1.091,6.951,3.021 c1.572,2.356,1.065,5.346,0.577,6.597C26.967,24.021,25.809,25,24.701,25z M20,17.227l0.06,0.008 c1.106,0.132,1.836,0.742,1.999,1.675l0.096,0.527C22.581,21.841,23.098,24,24.701,24c0.582,0,1.44-0.612,1.885-1.746 c0.34-0.87,0.916-3.589-0.478-5.678c-1.097-1.643-3.155-2.51-6.119-2.576c-2.942,0.066-5.001,0.934-6.098,2.576 c-1.394,2.089-0.817,4.808-0.478,5.679C13.858,23.388,14.717,24,15.299,24c1.603,0,2.119-2.156,2.546-4.56l0.098-0.536 c0.162-0.928,0.892-1.538,1.998-1.67L20,17.227z"/><g><path fill="#66798f" d="M23.5,17.003c0-0.829-1.567-1.5-3.5-1.5s-3.5,0.671-3.5,1.5s1.567,1.5,3.5,1.5 S23.5,17.832,23.5,17.003z"/><path fill="#36404d" d="M20,19.003c-1.988,0-4-0.687-4-2c0-2.625,8.001-2.626,8,0C24,18.316,21.987,19.003,20,19.003z M20,16.003c-1.861,0-3,0.647-3,1s1.139,1,3,1c1.861,0,3-0.647,3-1S21.861,16.003,20,16.003z"/></g><path fill="#ba9b48" d="M7,22c-1.654,0-3-1.346-3-3v-2h1v2c0,1.103,0.897,2,2,2s2-0.897,2-2v-1h1v1C10,20.654,8.654,22,7,22z"/><path fill="#ba9b48" d="M33,22c-1.654,0-3-1.346-3-3v-1h1v1c0,1.103,0.897,2,2,2s2-0.897,2-2v-2h1v2	C36,20.654,34.654,22,33,22z"/></svg>